# xmcd
#
# Track frame offsets: 
#        150
#        12755
#        23987
#        35458
#        48837
#        57140
#        70476
#        80499
#        94934
#        108761
#        120524
#        133879
#        146484
#        158164
#        168722
#        180185
#        191503
#        204357
#        219487
#        231808
#        247324
#        262443
#        275836
#        289131
#        299822
#        312433
#
# Disc length: 4354 seconds
#
# Revision: 0
# Processed by: cddbd v1.5.2PL0 Copyright (c) Steve Scherf et al.
# Submitted via: ExactAudioCopy v1.0b1
#
DISCID=9211001a
DTITLE=Merle Haggard - Hag - The Studio Recordings 1969-1976 [CD 2)
DYEAR=2007
DGENRE=Country
TTITLE0=Worried, Unhappy, Lonesome And Sorry
TTITLE1=Somewhere In Between
TTITLE2=The Sidewalks Of Chicago
TTITLE3=The Farmer's Daughter
TTITLE4=Tulare Dust
TTITLE5=When The Feelin' Goes Away
TTITLE6=Soldier's Last Letter
TTITLE7=The Only Trouble With Me
TTITLE8=Making Believe
TTITLE9=Big Time Annie's Square
TTITLE10=You're The Only Girl In The Game
TTITLE11=The Conversion Of Ronnie Jones
TTITLE12=Carolyn
TTITLE13=It's Great To Be Alive
TTITLE14=Someday We'll Look Back
TTITLE15=Somewhere In Between
TTITLE16=My Heart Would Know
TTITLE17=Daddy Frank (The Guitar Man)
TTITLE18=Goodbye Comes Hard For Me
TTITLE19=The Man Who Picked The Wildwood Flower
TTITLE20=You Don't Love Me (But I'll Always Care)
TTITLE21=This Cold War With You
TTITLE22=Irma Jackson
TTITLE23=Recitation, The Proudest Fiddle In The World (A Maiden's Pray
TTITLE23=er)
TTITLE24=Turnin' Off A Memory
TTITLE25=Grandma Harp
EXTD=
EXTT0=
EXTT1=
EXTT2=
EXTT3=
EXTT4=
EXTT5=
EXTT6=
EXTT7=
EXTT8=
EXTT9=
EXTT10=
EXTT11=
EXTT12=
EXTT13=
EXTT14=
EXTT15=
EXTT16=
EXTT17=
EXTT18=
EXTT19=
EXTT20=
EXTT21=
EXTT22=
EXTT23=
EXTT24=
EXTT25=
PLAYORDER=
